<svg xmlns="http://www.w3.org/2000/svg" viewBox="0 0 512 512">
  <rect width="512" height="512" fill="#020617" rx="100" />
  <path fill="#f59e0b" d="M384 224h-32v-48c0-26.5-21.5-48-48-48H208c-26.5 0-48 21.5-48 48v48h-32c-17.7 0-32 14.3-32 32v128c0 17.7 14.3 32 32 32h32v32c0 17.7 14.3 32 32 32h32c17.7 0 32-14.3 32-32v-32h96v32c0 17.7 14.3 32 32 32h32c17.7 0 32-14.3 32-32v-32h32c17.7 0 32-14.3 32-32V256c0-17.7-14.3-32-32-32zm-192-48h128v48H192v-48zm-32 192c-17.7 0-32-14.3-32-32s14.3-32 32-32 32 14.3 32 32-14.3 32-32 32zm192 0c-17.7 0-32-14.3-32-32s14.3-32 32-32 32 14.3 32 32-14.3 32-32 32z"/>
</svg>
